<?xml version="1.0" encoding="UTF-8" standalone="no"?> <svg xmlns="http://www.w3.org/2000/svg" xmlns:xlink="http://www.w3.org/1999/xlink" viewBox="0 0 64 64"><defs><style>.cls-1{fill:url(#linear-gradient);}.cls-2{fill:url(#linear-gradient-2);}.cls-3{fill:url(#linear-gradient-3);}.cls-4{fill:url(#linear-gradient-4);}.cls-5{fill:url(#linear-gradient-5);}.cls-6{fill:url(#linear-gradient-6);}.cls-7{fill:url(#linear-gradient-7);}.cls-8{fill:url(#linear-gradient-8);}.cls-9{fill:url(#linear-gradient-9);}</style><linearGradient id="linear-gradient" x1="6.5" y1="32" x2="57.5" y2="32" gradientUnits="userSpaceOnUse"><stop offset="0" stop-color="#17a6d7"/><stop offset="1" stop-color="#9d31fe"/></linearGradient><linearGradient id="linear-gradient-2" x1="20.11" y1="14.8" x2="33.55" y2="14.8" xlink:href="#linear-gradient"/><linearGradient id="linear-gradient-3" x1="36.54" y1="11.26" x2="43.68" y2="11.26" xlink:href="#linear-gradient"/><linearGradient id="linear-gradient-4" x1="36.54" y1="16.96" x2="52.46" y2="16.96" xlink:href="#linear-gradient"/><linearGradient id="linear-gradient-5" x1="20.32" y1="26.71" x2="52.68" y2="26.71" xlink:href="#linear-gradient"/><linearGradient id="linear-gradient-6" x1="20.32" y1="33.14" x2="52.68" y2="33.14" xlink:href="#linear-gradient"/><linearGradient id="linear-gradient-7" x1="20.32" y1="39.57" x2="52.68" y2="39.57" xlink:href="#linear-gradient"/><linearGradient id="linear-gradient-8" x1="20.32" y1="46" x2="52.68" y2="46" xlink:href="#linear-gradient"/><linearGradient id="linear-gradient-9" x1="20.32" y1="52.43" x2="52.68" y2="52.43" xlink:href="#linear-gradient"/></defs><g id="Layer_42" data-name="Layer 42"><path class="cls-1" d="M52.5,3h-32a5,5,0,0,0-5,5V31h-8a1,1,0,0,0-1,1V55.5A5.51,5.51,0,0,0,12,61H52.5a5,5,0,0,0,5-5V8A5,5,0,0,0,52.5,3ZM8.5,55.5V33h7V55.5a3.5,3.5,0,0,1-7,0Zm47,.5a3,3,0,0,1-3,3h-35V8a3,3,0,0,1,3-3h32a3,3,0,0,1,3,3Z"/><path class="cls-2" d="M26.83,22.34a8.68,8.68,0,0,0,6.47-2.9,1.49,1.49,0,0,0,.18-.3,1.05,1.05,0,0,0,0-.61A6.83,6.83,0,0,0,29.78,14a4,4,0,1,0-5.9,0,6.82,6.82,0,0,0-3.72,4.51,1.06,1.06,0,0,0,0,.68,1,1,0,0,0,.22.32A8.6,8.6,0,0,0,26.83,22.34Zm-2-11.08a2,2,0,1,1,2,2h0A2,2,0,0,1,24.82,11.26Zm2,4h0a4.88,4.88,0,0,1,4.58,3.23,6.65,6.65,0,0,1-9.18,0A4.88,4.88,0,0,1,26.82,15.27Z"/><path class="cls-3" d="M37.54,12.26h5.14a1,1,0,0,0,0-2H37.54a1,1,0,0,0,0,2Z"/><path class="cls-4" d="M37.54,18H51.46a1,1,0,0,0,0-2H37.54a1,1,0,0,0,0,2Z"/><path class="cls-5" d="M51.68,25.71H21.32a1,1,0,0,0,0,2H51.68a1,1,0,0,0,0-2Z"/><path class="cls-6" d="M51.68,32.14H21.32a1,1,0,0,0,0,2H51.68a1,1,0,0,0,0-2Z"/><path class="cls-7" d="M51.68,38.57H21.32a1,1,0,0,0,0,2H51.68a1,1,0,0,0,0-2Z"/><path class="cls-8" d="M51.68,45H21.32a1,1,0,1,0,0,2H51.68a1,1,0,1,0,0-2Z"/><path class="cls-9" d="M51.68,51.43H21.32a1,1,0,0,0,0,2H51.68a1,1,0,0,0,0-2Z"/></g></svg>